<svg width="238" height="48" viewBox="0 0 238 48" fill="none" xmlns="http://www.w3.org/2000/svg">
<path d="M1.38746 44.5557C1.25592 44.8502 1.41752 45.2088 1.7484 45.3566L7.14044 47.7648C7.47133 47.9125 7.8462 47.7936 7.97774 47.499C8.10928 47.2045 7.94769 46.8459 7.6168 46.6982L2.82388 44.5576L4.72931 40.2912C4.86086 39.9966 4.69926 39.6381 4.36838 39.4903C4.0375 39.3425 3.66263 39.4615 3.53108 39.756L1.38746 44.5557ZM117.365 8.20696L117.11 7.64066L1.73136 44.257L1.98658 44.8233L2.2418 45.3896L117.62 8.77327L117.365 8.20696Z" fill="black"/>
<path d="M237.272 28.061C237.444 28.3344 237.333 28.712 237.026 28.9043L232.022 32.0395C231.715 32.2319 231.327 32.1663 231.156 31.8929C230.985 31.6195 231.095 31.242 231.402 31.0496L235.85 28.2628L233.37 24.3031C233.198 24.0297 233.308 23.6522 233.615 23.4598C233.923 23.2674 234.31 23.333 234.482 23.6064L237.272 28.061ZM117.365 8.20696L117.539 7.61065L236.89 27.8131L236.716 28.4094L236.542 29.0057L117.191 8.80327L117.365 8.20696Z" fill="black"/>
</svg>
