<svg width="93" height="93" viewBox="0 0 93 93" fill="none" xmlns="http://www.w3.org/2000/svg">
<rect x="50.6772" y="2.49154" width="1.79731" height="12.4078" transform="rotate(-4 50.6772 2.49154)" fill="black"/>
<path d="M56.5458 3.88289L57.6023 5.33694L47.5726 12.624L46.5161 11.1699L56.5458 3.88289Z" fill="black"/>
<rect x="46.1641" y="6.13676" width="1.79731" height="12.3974" transform="rotate(-62 46.1641 6.13676)" fill="black"/>
<rect x="23.1754" y="31.6473" width="1.79731" height="12.4078" transform="rotate(-4 23.1754 31.6473)" fill="black"/>
<path d="M29.0441 33.0386L30.1005 34.4927L20.0708 41.7797L19.0144 40.3257L29.0441 33.0386Z" fill="black"/>
<rect x="18.6624" y="35.2925" width="1.79731" height="12.3974" transform="rotate(-62 18.6624 35.2925)" fill="black"/>
<rect x="77.5908" y="37.5352" width="1.79731" height="12.4078" transform="rotate(-4 77.5908 37.5352)" fill="black"/>
<path d="M83.4595 38.9265L84.5159 40.3806L74.4862 47.6676L73.4298 46.2135L83.4595 38.9265Z" fill="black"/>
<rect x="73.0778" y="41.1804" width="1.79731" height="12.3974" transform="rotate(-62 73.0778 41.1804)" fill="black"/>
<rect x="9.33777" y="71.3868" width="1.79731" height="12.4078" transform="rotate(-4 9.33777 71.3868)" fill="black"/>
<path d="M15.2064 72.7781L16.2629 74.2322L6.23314 81.5192L5.17671 80.0652L15.2064 72.7781Z" fill="black"/>
<rect x="4.82471" y="75.032" width="1.79731" height="12.3974" transform="rotate(-62 4.82471 75.032)" fill="black"/>
<rect x="84.8179" y="74.8785" width="1.79731" height="12.4078" transform="rotate(-4 84.8179 74.8785)" fill="black"/>
<path d="M90.6866 76.2699L91.743 77.7239L81.7133 85.011L80.6569 83.5569L90.6866 76.2699Z" fill="black"/>
<rect x="80.3049" y="78.5238" width="1.79731" height="12.3974" transform="rotate(-62 80.3049 78.5238)" fill="black"/>
<line x1="78.7507" y1="43.6816" x2="24.3353" y2="37.7937" stroke="black" stroke-width="0.460446"/>
<line x1="78.8778" y1="43.659" x2="10.6247" y2="77.5106" stroke="black" stroke-width="0.460446"/>
<line x1="85.9919" y1="81.0261" x2="10.5118" y2="77.5343" stroke="black" stroke-width="0.460446"/>
<line x1="52.0293" y1="8.56708" x2="24.5276" y2="37.7228" stroke="black" stroke-width="0.460446"/>
</svg>
