<svg width="69" height="85" viewBox="0 0 69 85" fill="none" xmlns="http://www.w3.org/2000/svg">
<path d="M6.64976 7.11754C10.557 6.84432 13.9551 9.28044 14.2321 12.8983C14.4613 16.5195 11.4353 19.4049 7.5264 19.6541C3.64485 19.9496 0.246746 17.5135 0.0176128 13.8923C-0.259461 10.2744 2.76653 7.38908 6.64976 7.11754ZM6.8576 10.0899C4.7482 10.2374 3.13178 11.5789 3.2776 13.6643C3.42343 15.7498 5.21753 16.9491 7.32694 16.8016C9.46031 16.6525 11.0221 15.2184 10.8763 13.133C10.7304 11.0475 8.99098 9.94071 6.8576 10.0899Z" fill="black"/>
<path d="M33.6391 71.6706L34.1503 78.9816L23.3156 79.7392L23.4615 81.8247L34.6317 81.0436L34.8262 83.8242L20.3959 84.8332L19.8696 77.3065L30.6803 76.5505L30.5445 74.6089L19.7338 75.3649L19.5444 72.6562L33.6391 71.6706Z" fill="black"/>
<path d="M23.824 1.53263L25.3493 23.3458L21.8976 23.5872L21.3679 16.0125L16.7176 16.3377L16.5182 13.4852L21.1684 13.16L20.9237 9.66031L16.2734 9.98549L16.0773 7.18093L20.7276 6.85575L20.3723 1.774L23.824 1.53263Z" fill="black"/>
<path d="M36.7851 34.2152L36.9762 36.9478L22.6658 37.9485L21.8595 26.4186L25.3353 26.1756L25.9504 34.9728L36.7851 34.2152Z" fill="black"/>
<path d="M53.7917 0.825457L54.6063 12.4751L40.4637 13.4641L39.6491 1.8144L53.7917 0.825457ZM43.2919 4.30567L43.7244 10.4901L50.9635 9.98386L50.531 3.79947L43.2919 4.30567Z" fill="black"/>
<path d="M60.1953 6.58169e-06L60.7719 8.24587L65.1825 7.93745L65.3786 10.742L60.968 11.0504L61.7172 21.7652L58.2895 22.0049L56.7675 0.239701L60.1953 6.58169e-06Z" fill="black"/>
<path d="M55.2277 23.7722L55.7389 31.0832L44.9042 31.8408L45.0501 33.9263L56.2203 33.1452L56.4148 35.9257L41.9845 36.9348L41.4582 29.4081L52.2689 28.6521L52.1331 26.7105L41.3224 27.4664L41.133 24.7578L55.2277 23.7722Z" fill="black"/>
<path d="M21.1401 52.8572L21.9732 64.7705L18.5454 65.0102L17.9051 55.8535L7.23821 56.5994L7.04545 53.8428L21.1401 52.8572Z" fill="black"/>
<path d="M31.8843 46.6178L33.4096 68.431L29.9579 68.6724L29.4282 61.0977L24.7779 61.4229L24.5784 58.5704L29.2287 58.2452L28.984 54.7455L24.3337 55.0707L24.1376 52.2661L28.7879 51.9409L28.4325 46.8592L31.8843 46.6178Z" fill="black"/>
<path d="M51.6451 79.5648L51.8361 82.2975L66.1465 81.2968L65.3403 69.767L61.8646 70.01L62.4797 78.8072L51.6451 79.5648Z" fill="black"/>
<path d="M50.4973 49.2204C50.7102 52.2647 52.6528 54.8989 57.418 55.5292L55.9791 58.3759C52.7639 57.866 50.5207 56.4451 49.173 54.3956C48.0997 56.6144 46.0761 58.3337 42.9631 59.286L41.1181 56.669C45.7492 55.3817 47.3063 52.5027 47.1174 49.4568L46.8945 46.2687L50.2743 46.0324L50.4973 49.2204Z" fill="black"/>
<path d="M63.7494 44.1352L64.326 52.3811L68.7366 52.0727L68.9327 54.8772L64.5221 55.1857L65.2714 65.9005L61.8436 66.1402L60.3216 44.3749L63.7494 44.1352Z" fill="black"/>
</svg>
