<svg width="201" height="202" viewBox="0 0 201 202" fill="none" xmlns="http://www.w3.org/2000/svg">
<rect x="123.241" y="7.69623" width="3.90342" height="26.9474" transform="rotate(4 123.241 7.69623)" fill="black"/>
<path d="M135.442 12.4624L137.275 15.9089L113.502 28.5494L111.669 25.1028L135.442 12.4624Z" fill="black"/>
<rect x="112.433" y="14.1718" width="3.90342" height="26.9248" transform="rotate(-54 112.433 14.1718)" fill="black"/>
<rect x="55.2817" y="62.0881" width="3.90342" height="26.9474" transform="rotate(4 55.2817 62.0881)" fill="black"/>
<path d="M67.4827 66.8543L69.3152 70.3008L45.542 82.9412L43.7095 79.4947L67.4827 66.8543Z" fill="black"/>
<rect x="44.4738" y="68.5637" width="3.90342" height="26.9248" transform="rotate(-54 44.4738 68.5637)" fill="black"/>
<rect x="170.532" y="91.1984" width="3.90342" height="26.9474" transform="rotate(4 170.532 91.1984)" fill="black"/>
<path d="M182.733 95.9646L184.565 99.4111L160.792 112.052L158.96 108.605L182.733 95.9646Z" fill="black"/>
<rect x="159.724" y="97.674" width="3.90342" height="26.9248" transform="rotate(-54 159.724 97.674)" fill="black"/>
<rect x="13.5098" y="143.372" width="3.90342" height="26.9474" transform="rotate(4 13.5098 143.372)" fill="black"/>
<path d="M25.7108 148.138L27.5434 151.585L3.77017 164.225L1.93763 160.779L25.7108 148.138Z" fill="black"/>
<rect x="2.70191" y="149.848" width="3.90342" height="26.9248" transform="rotate(-54 2.70191 149.848)" fill="black"/>
<rect x="174.787" y="173.696" width="3.90342" height="26.9474" transform="rotate(4 174.787 173.696)" fill="black"/>
<path d="M186.988 178.462L188.821 181.909L165.048 194.549L163.215 191.103L186.988 178.462Z" fill="black"/>
<rect x="163.979" y="180.172" width="3.90342" height="26.9248" transform="rotate(-54 163.979 180.172)" fill="black"/>
<line x1="171.169" y1="104.768" x2="55.9185" y2="75.6577" stroke="black"/>
<line x1="171.449" y1="104.758" x2="14.4267" y2="156.932" stroke="black"/>
<line x1="175.454" y1="187.272" x2="14.1767" y2="156.948" stroke="black"/>
<line x1="124.313" y1="21.1714" x2="56.3533" y2="75.5633" stroke="black"/>
</svg>
