<svg width="87" height="87" viewBox="0 0 87 87" fill="none" xmlns="http://www.w3.org/2000/svg">
<rect x="50.8009" width="1.79731" height="12.4078" fill="black"/>
<path d="M56.5582 1.79734L57.5107 3.32154L46.9971 9.89117L46.0446 8.36697L56.5582 1.79734Z" fill="black"/>
<rect x="46.0446" y="3.32152" width="1.79731" height="12.3974" transform="rotate(-58 46.0446 3.32152)" fill="black"/>
<rect x="21.3324" y="27.1663" width="1.79731" height="12.4078" fill="black"/>
<path d="M27.0897 28.9636L28.0421 30.4878L17.5285 37.0575L16.5761 35.5333L27.0897 28.9636Z" fill="black"/>
<rect x="16.576" y="30.4878" width="1.79731" height="12.3974" transform="rotate(-58 16.576 30.4878)" fill="black"/>
<rect x="75.2045" y="36.8356" width="1.79731" height="12.4078" fill="black"/>
<path d="M80.9618 38.633L81.9142 40.1572L71.4006 46.7268L70.4482 45.2026L80.9618 38.633Z" fill="black"/>
<rect x="70.4481" y="40.1572" width="1.79731" height="12.3974" transform="rotate(-58 70.4481 40.1572)" fill="black"/>
<rect x="4.75635" y="65.8437" width="1.79731" height="12.4078" fill="black"/>
<path d="M10.5136 67.641L11.466 69.1652L0.952443 75.7349L1.30822e-05 74.2107L10.5136 67.641Z" fill="black"/>
<rect y="69.1652" width="1.79731" height="12.3974" transform="rotate(-58 0 69.1652)" fill="black"/>
<rect x="79.809" y="74.5922" width="1.79731" height="12.4078" fill="black"/>
<path d="M85.5664 76.3895L86.5188 77.9137L76.0052 84.4834L75.0527 82.9592L85.5664 76.3895Z" fill="black"/>
<rect x="75.0527" y="77.9137" width="1.79731" height="12.3974" transform="rotate(-58 75.0527 77.9137)" fill="black"/>
<line x1="75.9328" y1="43.048" x2="22.0607" y2="33.3787" stroke="black" stroke-width="0.460446"/>
<line x1="76.0612" y1="43.0343" x2="5.61298" y2="72.0424" stroke="black" stroke-width="0.460446"/>
<line x1="80.5513" y1="80.8067" x2="5.4987" y2="72.0582" stroke="black" stroke-width="0.460446"/>
<line x1="51.7259" y1="6.15506" x2="22.2574" y2="33.3214" stroke="black" stroke-width="0.460446"/>
</svg>
