<svg width="106" height="30" viewBox="0 0 106 30" fill="none" xmlns="http://www.w3.org/2000/svg">
<path d="M53.5736 20.0637H54.9284V29.8271H53.5736V20.0637Z" fill="black"/>
<path d="M57.9135 21.478L58.6315 22.6773L50.7062 27.8469L49.9882 26.6475L57.9135 21.478Z" fill="black"/>
<path d="M49.9882 22.6773L50.7062 21.478L58.6315 26.6475L57.9135 27.8468L49.9882 22.6773Z" fill="black"/>
<path d="M11.1648 10.1385V11.8898H0V2.76378H2.12936V10.1385H11.1648Z" fill="black"/>
<path d="M76.8995 20.3486V25.9527H67.9216V28.2487H77.1872V30H65.9074V24.2598H74.8661V22.061H65.869V20.3486H76.8995Z" fill="black"/>
<path d="M16.7702 1.70053V8.51097H20.5493V10.2817H16.7702V19.0185H14.6408V1.70053H16.7702Z" fill="black"/>
<path d="M35.6251 0.732454C38.6944 0.732454 41.1499 2.79504 41.1691 5.65543C41.1499 8.49636 38.6944 10.5784 35.6251 10.5784C32.5749 10.5784 30.1003 8.49636 30.1195 5.65543C30.1003 2.79504 32.5749 0.732454 35.6251 0.732454ZM35.6251 2.60046C33.6876 2.60046 32.1337 3.82634 32.1529 5.65543C32.1337 7.48452 33.6876 8.76877 35.6251 8.76877C37.5818 8.76877 39.0781 7.48452 39.0973 5.65543C39.0781 3.82634 37.5818 2.60046 35.6251 2.60046Z" fill="black"/>
<path d="M48.795 0.738679V18.0761H46.6656V0.738679H48.795Z" fill="black"/>
<path d="M41.8138 15.3163V17.1065H26.0642V15.3163H41.8138Z" fill="black"/>
<path d="M67.9356 4.46431V13.8043H65.8254V6.21556H56.9435V4.46431H67.9356Z" fill="black"/>
<path d="M76.6478 0.011489V17.3295H74.5184V11.0639H70.6242V9.25423H74.5184V6.21872H70.6242V4.44801H74.5184V0.011489H76.6478Z" fill="black"/>
<path d="M90.9725 27.9958V29.747H102.137V20.621H100.008V27.9958H90.9725Z" fill="black"/>
<path d="M90.9254 3.39826C90.9254 6.10297 92.7862 8.22394 96.1817 8.9439L95.1649 10.6757C92.6711 10.0628 90.8391 8.72013 89.8895 6.80348C88.9303 8.72013 87.1079 10.0628 84.614 10.6757L83.5781 8.9439C86.9736 8.22394 88.8152 6.10297 88.8344 3.39826V0.732454H90.9254V3.39826Z" fill="black"/>
<path d="M102.221 0V6.81044H106V8.58116H102.221V17.318H100.092V0H102.221Z" fill="black"/>
</svg>
