<svg width="133" height="37" viewBox="0 0 133 37" fill="none" xmlns="http://www.w3.org/2000/svg">
<path d="M66.9796 24.7299H68.6734V36.764H66.9796V24.7299Z" fill="black"/>
<path d="M72.4055 26.4731L73.3031 27.9514L63.3946 34.3231L62.497 32.8448L72.4055 26.4731Z" fill="black"/>
<path d="M62.497 27.9513L63.3946 26.473L73.3031 32.8448L72.4055 34.3231L62.497 27.9513Z" fill="black"/>
<path d="M13.9586 12.4964V14.6549H0V3.40654H2.6622V12.4964H13.9586Z" fill="black"/>
<path d="M96.1424 25.0811V31.9884H84.918V34.8185H96.5022V36.977H82.3997V29.9018H93.6002V27.1916H82.3517V25.0811H96.1424Z" fill="black"/>
<path d="M20.9666 2.09602V10.4904H25.6915V12.6729H20.9666V23.4416H18.3044V2.09602H20.9666Z" fill="black"/>
<path d="M44.5397 0.902799C48.3771 0.902799 51.4471 3.44508 51.4711 6.9707C51.4471 10.4723 48.3771 13.0386 44.5397 13.0386C40.7263 13.0386 37.6324 10.4723 37.6564 6.9707C37.6324 3.44508 40.7263 0.902799 44.5397 0.902799ZM44.5397 3.20524C42.1174 3.20524 40.1747 4.71622 40.1987 6.9707C40.1747 9.22518 42.1174 10.8081 44.5397 10.8081C46.9861 10.8081 48.8568 9.22518 48.8808 6.9707C48.8568 4.71622 46.9861 3.20524 44.5397 3.20524Z" fill="black"/>
<path d="M61.0052 0.910472V22.28H58.343V0.910472H61.0052Z" fill="black"/>
<path d="M52.2771 18.8784V21.0849H32.5864V18.8784H52.2771Z" fill="black"/>
<path d="M84.9354 5.50256V17.0148H82.2972V7.6611H71.1927V5.50256H84.9354Z" fill="black"/>
<path d="M95.8278 0.0141609V21.3597H93.1656V13.637H88.2968V11.4065H93.1656V7.66499H88.2968V5.48247H93.1656V0.0141609H95.8278Z" fill="black"/>
<path d="M113.737 34.5067V36.6652H127.696V25.4168H125.033V34.5067H113.737Z" fill="black"/>
<path d="M113.678 4.18858C113.678 7.52233 116.005 10.1366 120.25 11.024L118.979 13.1585C115.861 12.403 113.57 10.7482 112.383 8.38575C111.184 10.7482 108.905 12.403 105.787 13.1585L104.492 11.024C108.737 10.1366 111.04 7.52233 111.064 4.18858V0.902799H113.678V4.18858Z" fill="black"/>
<path d="M127.8 0V8.39433H132.525V10.5769H127.8V21.3456H125.138V0H127.8Z" fill="black"/>
</svg>
