<svg width="152" height="35" viewBox="0 0 152 35" fill="none" xmlns="http://www.w3.org/2000/svg">
<path d="M86.5478 19.3798H88.5749V33.8769H86.5478V19.3798Z" fill="white"/>
<path d="M93.0413 21.4798L94.1155 23.2607L82.2575 30.9365L81.1832 29.1557L93.0413 21.4798Z" fill="white"/>
<path d="M81.1832 23.2606L82.2574 21.4798L94.1155 29.1556L93.0413 30.9365L81.1832 23.2606Z" fill="white"/>
<path d="M15.0052 2.26688V12.5161H2.69709V2.26688H15.0052ZM5.09449 4.20476V10.5998H12.6292V4.20476H5.09449Z" fill="white"/>
<path d="M17.5739 26.599V28.5584H0V26.599H7.57753V18.8905H9.93212V26.599H17.5739Z" fill="white"/>
<path d="M43.6885 18.3591V20.297H36.0682V28.393H33.6922V20.297H26.0933V18.3591H43.6885Z" fill="white"/>
<path d="M43.2741 2.20228V4.14016H33.5989V10.7074H43.4454V12.6022H31.2015V2.20228H43.2741Z" fill="white"/>
<path d="M68.9195 18.1592V20.1402H51.3456V18.1592H68.9195Z" fill="white"/>
<path d="M78.0434 0V19.185H75.6674V0H78.0434Z" fill="white"/>
<path d="M62.938 0.489217C66.3628 0.489217 69.1027 2.77161 69.1241 5.93681C69.1027 9.08048 66.3628 11.3844 62.938 11.3844C59.5345 11.3844 56.7732 9.08048 56.7946 5.93681C56.7732 2.77161 59.5345 0.489217 62.938 0.489217ZM62.938 2.55629C60.776 2.55629 59.0422 3.9128 59.0636 5.93681C59.0422 7.96081 60.776 9.38193 62.938 9.38193C65.1213 9.38193 66.7909 7.96081 66.8123 5.93681C66.7909 3.9128 65.1213 2.55629 62.938 2.55629Z" fill="white"/>
<path d="M117.787 22.9884V29.1896H107.77V31.7304H118.108V33.6683H105.522V27.3163H115.518V24.8832H105.479V22.9884H117.787Z" fill="white"/>
<path d="M118.328 0.043064V19.2065H115.952V12.2732H111.607V10.2708H115.952V6.91177H111.607V4.95236H115.952V0.043064H118.328Z" fill="white"/>
<path d="M107.949 5.01434V15.3497H105.594V6.95222H95.6836V5.01434H107.949Z" fill="white"/>
<path d="M134.907 32.8368V34.7747H147.365V24.6762H144.989V32.8368H134.907Z" fill="white"/>
<path d="M147.348 0.403655V7.93985H151.565V9.89926H147.348V19.5671H144.972V0.403655H147.348Z" fill="white"/>
<path d="M133.368 4.13228C133.368 7.12522 135.444 9.47221 139.233 10.2689L138.098 12.1852C135.316 11.507 133.271 10.0213 132.212 7.90038C131.142 10.0213 129.108 11.507 126.325 12.1852L125.169 10.2689C128.958 9.47221 131.013 7.12522 131.035 4.13228V1.1824H133.368V4.13228Z" fill="white"/>
</svg>
