<svg width="142" height="185" viewBox="0 0 142 185" fill="none" xmlns="http://www.w3.org/2000/svg">
<path d="M16.3496 7.34448C24.8352 7.93786 31.4071 14.2043 30.9095 22.0689C30.3077 29.9262 22.9277 35.217 14.4457 34.5715C6.0084 34.0339 -0.56348 27.7675 0.0382717 19.9101C0.535905 12.0455 7.91594 6.75474 16.3496 7.34448ZM15.8982 13.7998C11.3169 13.4795 7.43506 15.8761 7.11835 20.4052C6.80164 24.9344 10.2976 28.0561 14.8789 28.3765C19.5122 28.7005 23.3045 26.0884 23.6212 21.5592C23.9379 17.0301 20.5315 14.1238 15.8982 13.7998Z" fill="black"/>
<path d="M54.8831 154.335L53.7728 170.213L30.242 168.567L29.9253 173.097L54.185 174.793L53.7627 180.832L22.4229 178.64L23.566 162.294L47.0448 163.936L47.3396 159.719L23.8609 158.077L24.2722 152.194L54.8831 154.335Z" fill="black"/>
<path d="M54.9739 0.524213L51.6611 47.8983L44.1646 47.3741L45.3149 30.9233L35.2154 30.2171L35.6486 24.022L45.7481 24.7282L46.2796 17.1275L36.1801 16.4213L36.606 10.3304L46.7055 11.0366L47.4773 2.58091e-06L54.9739 0.524213Z" fill="black"/>
<path d="M72.9704 74.7312L72.5554 80.666L41.4759 78.4927L43.2269 53.4521L50.7755 53.98L49.4395 73.0858L72.9704 74.7312Z" fill="black"/>
<path d="M119.638 8.06126L117.869 33.3621L87.154 31.2143L88.9232 5.91345L119.638 8.06126ZM96.0048 12.3724L95.0656 25.8038L110.788 26.9031L111.727 13.4718L96.0048 12.3724Z" fill="black"/>
<path d="M133.66 8.22151L132.407 26.1299L141.986 26.7998L141.561 32.8907L131.982 32.2209L130.354 55.4915L122.91 54.9709L126.215 7.70094L133.66 8.22151Z" fill="black"/>
<path d="M115.791 57.8462L114.68 73.7243L91.1496 72.0789L90.8329 76.608L115.093 78.3044L114.67 84.3433L83.3306 82.1518L84.4736 65.8052L107.952 67.447L108.247 63.2302L84.7685 61.5884L85.1798 55.7057L115.791 57.8462Z" fill="black"/>
<path d="M33.6884 110.095L31.8792 135.969L24.4347 135.448L25.8253 115.562L2.65888 113.942L3.07752 107.955L33.6884 110.095Z" fill="black"/>
<path d="M58.6816 99.924L55.3688 147.298L47.8723 146.774L49.0226 130.323L38.9231 129.617L39.3563 123.422L49.4558 124.128L49.9873 116.527L39.8878 115.821L40.3137 109.73L50.4132 110.436L51.185 99.3998L58.6816 99.924Z" fill="black"/>
<path d="M91.222 176.755L90.807 182.69L121.886 184.863L123.637 159.823L116.089 159.295L114.753 178.401L91.222 176.755Z" fill="black"/>
<path d="M97.9253 111.147C97.463 117.759 100.845 124.011 110.903 126.807L106.948 132.495C100.187 130.426 95.792 126.692 93.5131 121.877C90.534 126.325 85.6623 129.411 78.6794 130.518L75.5023 124.332C85.8516 122.963 90.0706 117.242 90.585 110.634L91.0691 103.71L98.4095 104.223L97.9253 111.147Z" fill="black"/>
<path d="M127.963 104.216L126.711 122.125L136.29 122.795L135.864 128.885L126.285 128.216L124.658 151.486L117.213 150.966L120.519 103.696L127.963 104.216Z" fill="black"/>
</svg>
