<svg width="137" height="39" viewBox="0 0 137 39" fill="none" xmlns="http://www.w3.org/2000/svg">
<path d="M69.0106 25.9259H70.754V38.3116H69.0106V25.9259Z" fill="white"/>
<path d="M74.5951 27.72L75.5189 29.2415L65.3209 35.7994L64.3971 34.278L74.5951 27.72Z" fill="white"/>
<path d="M64.3971 29.2415L65.3209 27.72L75.5189 34.2779L74.595 35.7994L64.3971 29.2415Z" fill="white"/>
<path d="M7.08459 4.49258C11.0341 4.49258 14.1937 7.10914 14.2184 10.7378C14.1937 14.3417 11.0341 16.9829 7.08459 16.9829C3.15976 16.9829 -0.024542 14.3417 0.000142551 10.7378C-0.024542 7.10914 3.15976 4.49258 7.08459 4.49258ZM7.08459 6.86229C4.59146 6.86229 2.59202 8.41742 2.6167 10.7378C2.59202 13.0581 4.59146 14.6873 7.08459 14.6873C9.60241 14.6873 11.5278 13.0581 11.5525 10.7378C11.5278 8.41742 9.60241 6.86229 7.08459 6.86229Z" fill="white"/>
<path d="M99.0255 26.5576V33.6667H87.4731V36.5795H99.3957V38.8011H84.8813V31.5191H96.4089V28.7298H84.8319V26.5576H99.0255Z" fill="white"/>
<path d="M24.6402 0V21.9692H21.9002V14.0208H16.8893V11.7251H21.9002V7.87436H16.8893V5.62807H21.9002V0H24.6402Z" fill="white"/>
<path d="M35.926 34.742V36.9636H21.5596V25.3865H24.2996V34.742H35.926Z" fill="white"/>
<path d="M55.6973 1.34876V13.0986H41.5037V1.34876H55.6973ZM44.2683 3.57037V10.9017H52.9573V3.57037H44.2683Z" fill="white"/>
<path d="M62.0965 1.03577V9.67534H66.9593V11.9216H62.0965V23.005H59.3565V1.03577H62.0965Z" fill="white"/>
<path d="M55.5492 25.0409V32.1501H43.9968V35.0629H55.9194V37.2845H41.4049V30.0025H52.9326V27.2132H41.3556V25.0409H55.5492Z" fill="white"/>
<path d="M87.491 6.40706V18.2556H84.7757V8.62866H73.3468V6.40706H87.491Z" fill="white"/>
<path d="M98.7016 0.758311V22.7275H95.9616V14.7791H90.9507V12.4834H95.9616V8.63267H90.9507V6.38638H95.9616V0.758311H98.7016Z" fill="white"/>
<path d="M117.134 36.2586V38.4802H131.5V26.9031H128.76V36.2586H117.134Z" fill="white"/>
<path d="M117.688 4.33559C117.688 7.76673 120.082 10.4573 124.451 11.3707L123.143 13.5676C119.934 12.79 117.577 11.0868 116.355 8.65537C115.121 11.0868 112.776 12.79 109.567 13.5676L108.234 11.3707C112.603 10.4573 114.973 7.76673 114.997 4.33559V0.95381H117.688V4.33559Z" fill="white"/>
<path d="M131.608 0.0246845V8.66426H136.471V10.9106H131.608V21.9939H128.868V0.0246845H131.608Z" fill="white"/>
</svg>
